<?xml version="1.0" encoding="utf-8"?>
<!-- Generator: Adobe Illustrator 27.5.0, SVG Export Plug-In . SVG Version: 6.00 Build 0)  -->
<svg version="1.1" id="Capa_1" xmlns="http://www.w3.org/2000/svg" xmlns:xlink="http://www.w3.org/1999/xlink" x="0px" y="0px"
	 viewBox="0 0 2122 2122" style="enable-background:new 0 0 2122 2122;" xml:space="preserve">
<path style="fill:#ED6C2E;" d="M1038.377,990.509C927.841,863.148,764.284,628.268,559.564,573.501
	c-39.734,7.549-75.751,33.636-98.503,67.675c-32.163,48.119-40.405,107.479-27.169,163.366
	c14.347,60.581,50.238,114.541,94.803,157.254c43.841,42.018,97.437,74.064,155.473,92.065
	c28.898,8.963,58.819,14.498,89.054,15.917c35.745,1.677,71.225-3.152,106.772-6.068c32.87-2.697,66.188-3.328,98.525,4.158
	c15.079,3.491,29.872,8.849,43.417,16.384c14.031,7.805,25.026,19.135,38.102,28.201c1.129,0.783,2.296,1.526,3.477,2.242
	C1103.828,1082.173,1081.414,1040.098,1038.377,990.509z M884.304,966.18c-9.855,28.381-39.013,50.755-76.628,55.527
	c-145.396,18.445-264.537-75.493-314.232-211.015c-10.013-37.247-6.863-64.382,10.676-93.988
	c4.092-17.819,11.963-34.53,24.894-48.599c11.6-12.62,26.831-23.099,43.84-26.497c17.002-3.396,34.504-0.489,50.456,5.901
	c37.853,15.166,69.137,44.553,96.36,74.137c2.815,3.059,2.525,6.74,0.768,9.471c2.655,2.736,5.756,5.914,9.258,9.487
	c0.143-0.059,0.267-0.148,0.416-0.197c0.922-0.484,1.916-0.707,2.982-0.667c0.61-0.034,1.22-0.068,1.83-0.103
	c1.397,0.004,2.7,0.356,3.907,1.057c0.522,0.403,1.044,0.807,1.566,1.21c0.959,0.965,1.622,2.104,1.991,3.415
	c0.092,0.686,0.184,1.371,0.276,2.058c0.04,1.065-0.182,2.059-0.667,2.982c-0.212,0.653-0.566,1.224-0.983,1.758
	c2.925,2.969,5.971,6.057,9.139,9.266c2.534-1.045,5.571-0.943,8.204,1.275c8.516,7.175,16.879,14.529,25.048,22.097
	c31.717,29.388,62.054,61.905,86.789,97.468c11.742,16.882,22.409,37.134,21.571,58.3
	C891.397,949.831,888.734,958.494,884.304,966.18z"/>
<path style="fill:#ED6C2E;" d="M1619.851,453.097c-4.489-58.52-22.696-117.767-58.793-164.696
	c-34.696-45.107-87.52-76.294-144.836-79.996c-36.915-2.385-73.929,7.921-102.223,29.698
	c-96.738,187.601-35.397,465.395-16.783,632.278c7.123,63.867,22.362,108.312,71.042,103.062c3.192-15.442,1.792-31.7,5.15-47.213
	c13.71-63.321,66.206-106.723,112.092-147.766c23.844-21.328,46.473-43.729,65.084-69.865
	c17.349-24.363,31.779-50.918,42.732-78.752C1615.348,573.86,1624.452,513.084,1619.851,453.097z M1476.547,721.933
	c-27.057,22.775-60.386,29.75-87.105,20.865c-1.774-0.16-3.546-0.305-5.337-0.621c-39.142-6.896-51.558-50.128-57.058-83.768
	c-8.001-48.936-10.816-98.586-8.334-148.11c0.191-3.817,2.6-6.156,5.46-7.042c-0.203-4.318-0.4-8.507-0.592-12.515
	c-0.021,0.003-0.042,0.005-0.063,0.009c-1.397-0.005-2.699-0.357-3.906-1.057c-0.522-0.404-1.045-0.807-1.567-1.21
	c-0.754-0.701-1.288-1.531-1.6-2.491c-0.485-0.922-0.706-1.917-0.666-2.982c-0.04-1.066,0.181-2.06,0.666-2.982
	c0.312-0.959,0.846-1.79,1.6-2.491l1.324-1.269c0.963-0.956,2.098-1.618,3.404-1.986c-0.244-4.841-0.472-9.18-0.678-12.924
	c-3.428-0.505-6.665-2.946-7.002-7.324c-0.662-8.588-1.15-17.188-1.369-25.8c-0.85-33.432,1.291-68.794,14.877-99.804
	c5.805-13.25,14.232-25.432,25.749-34.325c12.706-9.811,27.97-14.227,43.825-15.481c20.681-1.635,39.961,3.426,57.27,12.836
	c35.169,6.89,57.867,22.951,79,56.416C1600.383,476.284,1588.673,627.552,1476.547,721.933z"/>
<path style="fill:#321C27;" d="M1717.233,1682.082c-9.253-17.874-19.731-35.177-30.276-52.31
	c-21.262-34.55-43.966-68.183-65.872-102.322c-5.892-9.181-11.726-18.399-17.494-27.659c-3.214-5.16-9.458-4.248-12.626-0.829
	c-2.014,2.171-2.794,5.345-0.741,8.642c21.187,34.011,43.491,67.297,65.128,101.019c10.36,16.146,20.535,32.412,30.286,48.934
	c9.832,16.658,20.79,33.702,26.896,52.165c2.945,8.906,4.804,18.504,3.102,27.864c-0.123,0.677-0.756,5.336-1.423,5.527l-4.2-3.195
	c-2.652-1.779-5.083-3.845-7.445-5.99c-1.276-1.16-2.559-2.315-3.784-3.525c-7.663-7.573-14.707-15.812-22.019-23.724
	c-13.961-15.106-28.072-30.073-42.228-44.996c-7.682-8.098-15.423-16.139-23.131-24.211c-27.307-28.597-54.721-57.092-82.228-85.495
	c-32.581-33.642-65.251-67.199-97.981-100.697c-16.559-16.947-32.611-34.724-49.886-50.95l-0.734-0.747
	c-1.109-1.129-2.319-1.761-3.54-2.068c-0.577-11.016-1.198-22.03-1.759-33.047c-0.64-12.565-1.216-25.134-1.834-37.7
	c-1.413-28.711-2.837-57.421-4.136-86.137c-1.124-24.84-2.188-49.683-3.213-74.528c19.633,30.036,38.8,60.394,58.239,90.543
	c35.534,55.11,71.038,110.239,106.764,165.224c9.354,14.396,18.283,29.28,28.395,43.167c2.811,3.861,7.4,4.025,10.73,2.271
	c3.549-1.869,5.667-5.92,2.636-10.083c-8.347-11.464-15.744-23.721-23.474-35.599c-16.06-24.68-32.045-49.407-48.025-74.138
	c-35.587-55.078-71.093-110.207-106.64-165.311c-9.336-14.472-18.53-29.053-28.077-43.388c-0.514-0.772-1.113-1.362-1.744-1.866
	c-1.369-34.907-2.601-69.819-3.63-104.737c-0.206-6.982-0.4-13.963-0.586-20.945c2.591-1.294,5.096-2.946,7.49-5.087
	c11.38-10.181,15.247-25.596,16.635-40.213c1.672-17.618,2.078-34.193,7.853-51.13c10.45-30.645,31.161-56.868,53.748-79.552
	c25.02-25.124,53.045-47.022,78.09-72.119c22.401-22.449,41.874-47.795,57.802-75.222c31.873-54.884,49.848-117.494,53.513-180.772
	c7.002-120.896-42.135-260.099-165.494-303.216c-56.792-19.85-122.044-14.102-169.643,24.563
	c-26.381,21.43-41.22,51.093-50.028,83.391c-8.626,31.631-13.772,64.252-17.079,96.839
	c-13.774,135.698,6.712,271.801,16.312,407.039c1.075,15.141,1.996,30.292,2.689,45.455c0.282,6.172,6.381,8.521,10.84,7.016
	c2.708-0.914,4.812-3.246,4.64-7.016c-5.856-128.108-26.161-255.396-23.132-383.907c0.747-31.681,2.819-63.414,7.289-94.8
	c4.385-30.79,9.979-62.754,21.64-91.722c8.738-21.706,22.813-39.34,40.149-52.683c28.293-21.777,65.307-32.083,102.223-29.698
	c57.317,3.702,110.14,34.889,144.836,79.996c36.098,46.929,54.305,106.176,58.793,164.696c4.601,59.987-4.503,120.763-26.535,176.75
	c-10.953,27.834-25.383,54.389-42.732,78.752c-18.611,26.136-41.239,48.537-65.084,69.865
	c-45.886,41.043-98.382,84.445-112.092,147.766c-3.358,15.512-1.958,31.771-5.15,47.213c-0.265,1.28-0.499,2.565-0.833,3.832
	c-1.548,5.875-4.074,11.669-8.321,16.105c-5.554,5.799-12.736,6.995-20.442,7.122c-13.798,0.226-27.991,1.999-41.758,1.212
	c-4.585-0.262-9.716-1.028-13.468-3.912c-5.822-4.475-5.885-12.668-6.435-19.314c-1.484-17.911-2.945-35.823-4.417-53.735
	c-0.342-4.167-3.311-6.567-6.559-7.223c-4.435-0.896-9.393,1.482-8.92,7.223c1.592,19.371,2.916,38.787,4.784,58.134
	c1.034,10.707,4.295,20.135,11.662,26.421c-0.203,0.402-0.402,0.81-0.55,1.277c-8.206,25.788-24.164,46.922-42.291,66.262
	c-0.691-0.024-1.38-0.076-2.085,0.037c-25.246,4.064-52.677,4.942-74.621-9.655c-0.439-9.249-5.554-17.613-12.53-25.351
	c-12.581-13.954-25.296-27.789-37.944-41.683c-2.996-3.292-6.82-2.923-9.553-0.865c-3.396,2.558-5.103,7.734-1.392,11.81
	c12.647,13.894,25.364,27.729,37.943,41.683c4.238,4.701,9.252,10.07,8.219,16.95c-0.911,6.072-5.595,11.352-9.648,15.625
	c-4.577,4.827-9.614,9.184-14.411,13.785c-5.383,5.162-9.975,11.173-15.599,16.073c-10.971,9.558-24.334,6.249-35.573-0.562
	c-1.182-0.716-2.348-1.459-3.477-2.242c-13.077-9.066-24.071-20.396-38.102-28.201c-13.544-7.535-28.337-12.893-43.417-16.384
	c-32.337-7.486-65.655-6.854-98.525-4.158c-35.547,2.916-71.027,7.745-106.772,6.068c-30.235-1.418-60.156-6.953-89.054-15.917
	c-58.036-18.001-111.632-50.048-155.473-92.065c-44.565-42.713-80.456-96.673-94.803-157.254
	c-13.236-55.888-4.993-115.248,27.169-163.366c22.752-34.039,58.77-60.126,98.503-67.675c18.041-3.427,36.848-3.034,55.527,2.173
	c29.568,8.242,56.818,25.56,82.207,42.392c25.158,16.679,49.048,35.177,71.987,54.779c92.49,79.04,169.235,173.96,252.082,262.54
	c9.171,9.806,18.437,19.524,27.829,29.117c3.487,3.56,7.96,2.612,10.697-0.117c2.744-2.736,3.742-7.261,0.249-10.829
	c-88.705-90.594-167.174-190.949-261.782-275.779c-23.639-21.196-48.241-41.373-74.068-59.854
	c-25.84-18.491-53.228-36.38-82.487-48.985c-32.522-14.011-67.128-16.993-101.239-6.703c-28.44,8.578-54.019,25.312-74.073,47.134
	c-39.823,43.335-58.622,103.863-53.507,162.171c5.765,65.717,37.471,126.473,80.366,175.655
	c41.805,47.933,95.063,85.531,153.806,109.738c29.542,12.174,60.563,20.701,92.216,25.106c35.189,4.898,70.093,3.681,105.377,0.399
	c36.332-3.38,73.067-7.814,109.503-3.245c16.081,2.016,32.26,5.845,47.202,12.197c15.477,6.579,28.002,16.347,40.922,26.884
	c12.376,10.094,26.804,19.544,43.523,18.56c4.576-0.269,8.563-1.409,12.212-3.077c30.198,28.233,59.293,57.619,87.206,88.112
	c3.132,10.656,6.371,21.284,9.402,31.943c5.933,20.864,11.761,41.758,17.482,62.681c11.335,41.451,22.255,83.015,32.755,124.686
	c11.801,46.83,23.065,93.794,33.815,140.876c1.104,4.835,5.36,6.239,9.083,5.234c3.75-1.013,6.958-4.474,5.844-9.349
	c-18.859-82.593-39.32-164.818-61.417-246.605c-10.995-40.695-22.39-81.282-34.184-121.753c-5.425-18.612-12.602-38.97-7.365-58.438
	c1.025-3.81,2.5-7.411,4.267-10.86c5.716-11.161,14.741-20.609,23.599-29.331c28.333-27.902,56.161-56.332,68.87-94.949
	c2.9,0.671,5.85,1.055,8.832,1.231c8.671,0.511,17.572-0.619,26.078-1.089c7.722-0.427,15.496-0.062,22.946-0.82
	c1.713,63.104,4.171,126.187,6.906,189.253c3.305,76.218,7.061,152.416,11.158,228.595c4.078,75.836,8.49,151.655,13.374,227.444
	c2.194,34.033,4.484,68.059,6.925,102.076c0.126,1.758,0.263,3.514,0.391,5.271c0.985,13.632,1.984,27.264,3.028,40.892
	c1.258,16.433,3.369,33.035,3.559,49.515c0.01,0.891,0.053,1.957,0.094,3.085c0.168,4.549,0.334,10.482-1.584,13.669
	c-0.287,0.477-0.461,0.794-0.645,1.125c-0.03-0.003-0.025-0.035-0.064-0.03c-0.458,0.065-2.938-1.636-3.079-1.721
	c-1.913-1.158-3.719-2.451-5.408-3.914c-6.851-5.938-11.741-13.601-15.728-21.665c-8.922-18.048-14.011-38.294-19.552-57.566
	c-12.484-43.422-22.463-87.507-33.504-131.305c-2.923-11.598-5.922-23.177-9.013-34.732c-0.921-3.439-3.427-5.1-6.144-5.407
	c-4.877-0.55-10.442,3.324-8.783,9.522c12.315,46.03,22.732,92.539,34.951,138.592c5.859,22.082,12.014,44.165,19.395,65.793
	c5.966,17.483,13.626,36.04,28.089,48.269c6.749,5.706,17.461,13.563,26.6,8.627c9.664-5.219,9.771-20.497,9.862-29.968
	c0.165-17.229-2.252-34.71-3.568-51.89c-2.529-33.029-4.87-66.072-7.103-99.123c-5.193-76.833-9.816-153.706-14.099-230.594
	c-1.112-19.954-2.125-39.914-3.188-59.87c11.749,11.977,23.49,23.96,35.219,35.957c33.443,34.21,66.824,68.481,100.116,102.839
	c36.85,38.029,73.617,76.142,110.061,114.56c14.623,15.415,29.199,30.875,43.608,46.49c8.483,9.194,16.545,19.023,26.008,27.225
	c6.406,5.553,15.302,13.334,24.427,11.895c9.481-1.495,12.268-11.552,13.425-19.698
	C1733.884,1718.666,1726.206,1699.413,1717.233,1682.082z"/>
<path style="fill:#8396A1;" d="M1666.592,1642.425c-93.169-140.194-176.828-260.786-266.576-398.219
	c-5.76-8.819-18.301,60.911-26.57,82.56c0.619,12.566,1.195,25.135,1.834,37.7c65.571,76.036,154.982,174.24,236.129,273.005
	c7.708,8.072,15.449,16.113,23.131,24.211c14.156,14.923,28.267,29.89,42.228,44.996c7.312,7.913,14.356,16.151,22.019,23.724
	c1.225,1.211,2.508,2.365,3.784,3.525C1712.793,1710.861,1690.969,1679.108,1666.592,1642.425z"/>
<path style="fill:#8396A1;" d="M1210.494,1097.236c1.043-1.012,2.083-2.031,3.124-3.048c-21.973,1.836-44.464,0.059-63.532-11.145
	c-6.248,11.837-17.67,20.193-26.936,29.508c-4.099,4.121-7.964,8.391-12.066,12.186c22.508,21.117,44.407,42.869,65.649,65.253
	c-3.985-17.79-4.798-35.88,2.718-52.964C1186.298,1121.463,1198.452,1108.922,1210.494,1097.236z"/>
<path style="fill:#C6CBCE;" d="M1377.039,1397.513c1.221,0.307,2.431,0.939,3.54,2.068l0.734,0.747
	c17.276,16.226,33.328,34.003,49.886,50.95c32.729,33.498,65.4,67.054,97.981,100.697c27.508,28.403,54.921,56.898,82.228,85.495
	c-81.147-98.765-170.558-196.969-236.129-273.005C1375.841,1375.483,1376.463,1386.496,1377.039,1397.513z"/>
<path style="fill:#6C8997;" d="M1712.537,1709.721c-6.106-18.463-17.065-35.506-26.896-52.165
	c-9.751-16.522-19.926-32.788-30.286-48.934c-21.637-33.722-43.941-67.008-65.128-101.019c-2.053-3.297-1.273-6.471,0.741-8.642
	c-0.766-1.168-1.52-2.32-2.29-3.494c-1.233-1.882-2.484-3.791-3.727-5.688c-0.938,0.428-2.031,0.674-3.284,0.674
	c-7.765,0-9.448-9.354-5.127-13.511c-2.094-3.196-4.199-6.409-6.314-9.637c-3.331,1.755-7.919,1.59-10.73-2.271
	c-10.112-13.887-19.041-28.77-28.395-43.167c-35.726-54.985-71.23-110.114-106.764-165.224
	c-19.439-30.15-38.606-60.508-58.239-90.543c1.025,24.845,2.09,49.688,3.213,74.528c1.299,28.716,2.723,57.426,4.136,86.137
	c8.268-21.649,20.81-91.379,26.57-82.56c89.749,137.433,173.408,258.025,266.576,398.219c24.377,36.682,46.201,68.436,35.979,91.502
	c2.362,2.146,4.794,4.211,7.445,5.99l4.2,3.195c0.667-0.192,1.3-4.851,1.423-5.527
	C1717.341,1728.225,1715.482,1718.628,1712.537,1709.721z"/>
<path style="fill:#D24C17;" d="M1049.196,964.503c-9.392-9.593-18.657-19.311-27.829-29.117
	c-82.847-88.58-159.592-183.501-252.082-262.54c-22.94-19.603-46.83-38.101-71.987-54.779
	c-25.389-16.833-52.639-34.15-82.207-42.392c-18.679-5.207-37.487-5.601-55.527-2.173
	c204.72,54.768,368.277,289.648,478.813,417.009c43.037,49.588,65.451,91.663,25.137,124.186
	c11.239,6.811,24.602,10.121,35.573,0.562c5.624-4.9,10.215-10.911,15.599-16.073c4.797-4.6,9.834-8.958,14.411-13.785
	c4.053-4.273,8.736-9.553,9.648-15.625c1.033-6.88-3.981-12.249-8.219-16.95c-12.58-13.955-25.296-27.789-37.943-41.683
	c-3.711-4.076-2.004-9.252,1.392-11.81c-4.615-4.733-9.395-9.634-14.317-14.68c-1.227,1.757-3.212,2.998-6.009,2.998
	c-8.039,0-9.578-10.039-4.667-13.944c-2.996-3.072-6.031-6.183-9.09-9.319C1057.156,967.115,1052.682,968.063,1049.196,964.503z"/>
<path style="fill:#D24C17;" d="M884.304,966.18c-4.038,7.008-9.537,13.207-16.258,18.253
	c-27.471,20.625-66.299,21.904-99.159,19.349c-36.098-2.805-71.273-12.512-104.007-27.908
	c-64.75-30.456-119.499-84.124-147.68-150.243c-14.017-32.888-21.291-73.176-13.08-108.927
	c-17.539,29.606-20.689,56.741-10.676,93.988c49.695,135.522,168.836,229.46,314.232,211.015
	C845.29,1016.935,874.449,994.56,884.304,966.18z"/>
<path style="fill:#F49B5A;" d="M467.053,770.089c-1.487-18.758,2.366-33.577,10.844-57.468
	c5.387-15.182,21.922-33.858,21.447-50.484c-0.443-15.514-24.748-35.398-39.225-15.306c-14.477,20.091-23.455,54.707-27.39,85.651
	c-4.236,33.319-0.418,70.306,11.811,101.624c7.652,19.597,17.557,38.899,28.68,56.794c8.659,13.931,32.682,44.942,51.608,33.951
	c16.286-9.459-11.499-38.036-18.607-47.756C485.497,848.753,469.81,804.889,467.053,770.089z"/>
<path style="fill:#F49B5A;" d="M996.677,969.999c-18.492-22.53-35.511-46.332-54.48-68.369
	c-8.631-10.028-19.549-21.129-25.619-32.741c-2.94-5.958-15.799-5.933-19.968-4.196c-13.261,5.525-12.265,20.927-9.095,32.395
	c4.169,15.083,12.734,28.738,15.789,44.128c3.621,18.242-3.901,41.517-16.682,55.045c-12.884,13.639-47.765,23.159-48.826,45.318
	c-1.089,22.745,38.773,16.522,52.433,16.516c24.303-0.01,48.9,0.964,73.171,1.744c18.981,0.61,54.153,12.021,71.216-0.33
	c12.495-9.043,9.588-21.909,2.808-33.697C1026.126,1006.171,1011.018,987.471,996.677,969.999z"/>
<path style="fill:#9DA9B1;" d="M1390.667,1858.373c-0.191-16.479-2.301-33.081-3.559-49.515
	c-1.043-13.627-2.043-27.259-3.028-40.892c-35.67-126.822-54.668-377.991-64.34-544.833c-3.696,4.452-8.203,8.197-13.454,10.625
	c-1.724,0.797-3.584,1.071-5.321,0.804c-4.69,2.555-9.983,4.173-15.67,4.493c-20.516,1.154-38.082-14.542-39.236-35.057
	c-0.634-11.275,3.841-21.639,11.388-28.897c-2.116-2.933-2.206-7.634,0.69-10.086c8.881-7.522,20.407-11.909,32.156-10.865
	c10,0.888,19.253,5.214,26.298,11.836c-3.195-60.976-4.862-102.009-5.563-106.805c-2.508-17.173-5.55-30.804-14.724-41.944
	c-2.982-0.176-5.932-0.56-8.832-1.231c-12.709,38.617-40.537,67.047-68.87,94.949c-8.858,8.722-17.882,18.171-23.599,29.331
	c50.296,183.674,104.325,423.779,155.586,633.866c10.03,41.108,18.358,77.315,40.172,87.306
	C1390.72,1860.33,1390.677,1859.263,1390.667,1858.373z"/>
<path style="fill:#C6CBCE;" d="M1316.591,1165.985c6.961,6.544,11.765,15.331,12.984,25.285c1.382,11.289-2.527,23.063-9.834,31.864
	c9.671,166.842,28.67,418.01,64.34,544.833c-0.127-1.757-0.265-3.514-0.391-5.271c-2.441-34.016-4.731-68.043-6.925-102.076
	c-4.884-75.789-9.296-151.608-13.374-227.444c-4.096-76.179-7.853-152.377-11.158-228.595c-2.734-63.067-5.193-126.15-6.906-189.253
	c-7.45,0.758-15.224,0.393-22.946,0.82c-8.505,0.471-17.407,1.601-26.078,1.089c9.174,11.14,12.216,24.771,14.724,41.944
	C1311.728,1063.976,1313.396,1105.008,1316.591,1165.985z"/>
<path style="fill:#6C8997;" d="M1302.186,1625.318c3.091,11.555,6.09,23.134,9.013,34.732
	c11.041,43.799,21.02,87.883,33.504,131.305c5.541,19.272,10.629,39.518,19.552,57.566c3.987,8.064,8.877,15.727,15.728,21.665
	c1.689,1.464,3.495,2.756,5.408,3.914c0.142,0.085,2.621,1.786,3.079,1.721c0.039-0.005,0.034,0.027,0.064,0.03
	c0.184-0.331,0.358-0.648,0.645-1.125c1.917-3.188,1.752-9.121,1.584-13.669c-21.814-9.991-30.142-46.198-40.172-87.306
	c-51.261-210.087-105.291-450.193-155.586-633.866c-1.767,3.449-3.242,7.051-4.267,10.86c-5.237,19.468,1.94,39.826,7.365,58.438
	c11.794,40.47,23.189,81.058,34.184,121.753c22.097,81.787,42.558,164.012,61.417,246.605c1.113,4.876-2.094,8.336-5.844,9.349
	c0.579,2.306,1.156,4.608,1.732,6.9c0.08-0.002,0.147-0.023,0.228-0.023c8.641,0,9.772,11.592,3.456,14.704
	c0.928,3.702,1.852,7.385,2.769,11.039C1298.759,1620.218,1301.265,1621.879,1302.186,1625.318z"/>
<path style="fill:#D24C17;" d="M1272.584,924.753c1.473,17.912,2.933,35.825,4.417,53.735c0.55,6.646,0.613,14.839,6.435,19.314
	c3.752,2.884,8.883,3.65,13.468,3.912c13.766,0.787,27.959-0.986,41.758-1.212c7.706-0.127,14.888-1.323,20.442-7.122
	c4.247-4.435,6.773-10.229,8.321-16.105c0.334-1.267,0.568-2.552,0.833-3.832c-48.679,5.25-63.918-39.195-71.042-103.062
	c-18.615-166.883-79.956-444.677,16.783-632.278c-17.336,13.343-31.411,30.976-40.149,52.683
	c-11.661,28.968-17.255,60.932-21.64,91.722c-4.47,31.387-6.542,63.119-7.289,94.8c-3.029,128.511,17.276,255.799,23.132,383.907
	c0.173,3.769-1.932,6.102-4.64,7.016c0.241,4.549,0.48,9.06,0.715,13.512c7.696,1.339,7.943,12.927,0.795,14.988
	c0.379,7.154,0.747,14.097,1.102,20.798C1269.273,918.186,1272.242,920.586,1272.584,924.753z"/>
<path style="fill:#D24C17;" d="M1528.854,376.26c30.027,67.96,31.671,146.761,7.765,216.849
	c-11.858,34.765-29.815,67.261-53.483,95.38c-22.558,26.799-55.974,57.704-93.693,54.309c26.719,8.885,60.048,1.91,87.105-20.865
	c112.126-94.382,123.836-245.649,57.898-374.054c-21.133-33.465-43.831-49.526-79-56.416
	C1488.376,309.366,1514.164,343.014,1528.854,376.26z"/>
<path style="fill:#6C8997;" d="M1295.697,1230.982c-0.365-0.626-0.597-1.336-0.761-2.071c-2.155,0.565-4.398,0.927-6.709,1.057
	c-18.62,1.047-34.564-13.199-35.611-31.819c-0.45-8.012,1.943-15.518,6.286-21.566c-0.259-0.2-0.523-0.382-0.764-0.624
	c-0.259-0.258-0.474-0.56-0.69-0.86c-7.547,7.258-12.022,17.623-11.388,28.897c1.154,20.515,18.72,36.211,39.236,35.057
	c5.687-0.319,10.98-1.937,15.67-4.493C1298.864,1234.239,1296.943,1233.113,1295.697,1230.982z"/>
<path style="fill:#BFD1DC;" d="M1311.345,1183.975c-8.222-14.865-28.803-19.414-42.262-8.016c-2.954,2.502-7.076,3.04-10.181,0.624
	c-4.343,6.048-6.736,13.554-6.286,21.566c1.047,18.62,16.991,32.866,35.611,31.819c2.31-0.13,4.554-0.492,6.709-1.057
	c-0.719-3.211,0.449-7.091,3.538-8.519c6.828-3.157,11.884-8.694,14.204-15.318c0.672-1.918,1.202-3.898,1.52-5.908
	c0.051-0.325,0.094-0.706,0.152-1.831c0.051-1.013,0.055-2.026,0.013-3.038C1314.236,1191.244,1313.254,1187.428,1311.345,1183.975z
	"/>
<path style="fill:#6C8997;" d="M1263.318,1200.478c-3.442,1.797-4.788,6.082-2.991,9.524c1.797,3.442,6.082,4.788,9.525,2.991
	l37.996-19.833c3.441-1.797,4.787-6.082,2.991-9.524c-1.796-3.442-6.082-4.788-9.524-2.991L1263.318,1200.478z"/>
<path style="fill:#F49B5A;" d="M1472.888,269.966c23.31,9.964,36.816,17.177,49.599,30.986
	c23.713,25.619,45.325,66.886,52.11,101.335c2.327,11.815,4.5,51.613,22.494,46.053c20.91-6.462,14.398-45.145,10.027-60.955
	c-5.615-20.307-13.091-40.675-22.31-59.585c-14.733-30.222-39.335-58.102-66.701-77.576c-25.415-18.085-56.949-34.951-81.533-37.929
	c-24.585-2.977-26.444,28.37-15.34,39.212C1433.137,263.129,1458.075,263.634,1472.888,269.966z"/>
<path style="fill:#F49B5A;" d="M1290.378,698.394c4.421,12.334,5.181,27.886,6.701,41.029c3.341,28.884,9.302,57.531,13.328,86.399
	c3.123,22.388,6.628,46.171,13.407,67.792c4.068,12.977,11.556,23.835,26.675,20.78c20.647-4.171,36.102-37.763,48.521-52.131
	c15.88-18.371,31.839-37.113,48.322-54.972c9.264-10.038,40.862-35.123,23.403-49.743c-17.009-14.242-47.654,4.947-66.414,5.173
	c-18.61,0.224-40.819-10.024-51.774-25.053c-9.242-12.678-13.474-28.231-21.736-41.522c-6.283-10.105-16.929-21.279-29.981-15.275
	C1296.726,682.758,1287.992,692.193,1290.378,698.394z"/>
<path style="fill:#321C27;" d="M1329.575,1191.27c-1.219-9.953-6.023-18.741-12.984-25.285
	c-7.045-6.623-16.298-10.948-26.298-11.836c-11.749-1.044-23.274,3.343-32.156,10.865c-2.896,2.453-2.806,7.153-0.69,10.086
	c0.216,0.3,0.432,0.601,0.69,0.86c0.241,0.242,0.506,0.424,0.764,0.624c3.105,2.416,7.227,1.878,10.181-0.624
	c13.459-11.398,34.04-6.849,42.262,8.016c1.909,3.452,2.892,7.269,3.017,10.321c0.042,1.013,0.039,2.026-0.013,3.038
	c-0.057,1.125-0.101,1.507-0.152,1.831c-0.318,2.01-0.849,3.99-1.52,5.908c-2.32,6.624-7.376,12.161-14.204,15.318
	c-3.088,1.428-4.257,5.308-3.538,8.519c0.165,0.734,0.396,1.445,0.761,2.071c1.246,2.131,3.167,3.257,5.268,3.58
	c1.738,0.267,3.598-0.006,5.321-0.804c5.251-2.428,9.758-6.172,13.454-10.625C1327.047,1214.333,1330.957,1202.558,1329.575,1191.27
	z"/>
<path style="fill:#321C27;" d="M517.2,825.631c28.181,66.12,82.93,119.788,147.68,150.243
	c32.734,15.396,67.909,25.103,104.007,27.908c32.86,2.554,71.688,1.275,99.159-19.349c6.721-5.046,12.22-11.246,16.258-18.253
	c4.43-7.686,7.093-16.349,7.461-25.656c0.838-21.166-9.829-41.418-21.571-58.3c-24.735-35.563-55.071-68.08-86.789-97.468
	c-8.169-7.569-16.532-14.923-25.048-22.097c-2.633-2.218-5.669-2.319-8.204-1.275c-4.757,1.96-7.721,8.027-2.742,12.221
	c31.236,26.314,60.167,55.3,86.282,86.71c20.546,24.711,57.842,65.559,36.494,99.742c-16.111,25.797-54.086,29.13-81.383,29.052
	c-33.196-0.095-66.096-6.698-97.085-18.505c-61.582-23.463-115.451-68.465-147.924-125.95c-12.178-21.557-21.028-44.4-25.211-68.837
	c-4.314-25.205-3.77-53.102,7.673-76.461c13.133-26.808,39.976-47.568,70.93-43.132c35.579,5.099,66.711,31.72,91.598,55.825
	c6.857,6.642,13.477,13.519,19.941,20.544c3.937,4.278,9.263,2.332,11.714-1.475c1.758-2.731,2.047-6.412-0.768-9.471
	c-27.223-29.584-58.507-58.971-96.36-74.137c-15.952-6.391-33.454-9.298-50.456-5.901c-17.009,3.398-32.24,13.878-43.84,26.497
	c-12.932,14.069-20.802,30.78-24.894,48.599C495.91,752.456,503.183,792.744,517.2,825.631z"/>
<path style="fill:#321C27;" d="M726.02,744.499c-0.484,0.922-0.706,1.916-0.666,2.982c0.092,0.685,0.184,1.371,0.276,2.057
	c0.367,1.311,1.031,2.45,1.99,3.415c0.522,0.403,1.045,0.806,1.567,1.21c1.207,0.7,2.509,1.053,3.907,1.057
	c0.61-0.034,1.22-0.069,1.83-0.103c1.066,0.04,2.06-0.182,2.982-0.667c0.959-0.312,1.79-0.846,2.491-1.6
	c0.241-0.224,0.421-0.483,0.617-0.733c0.418-0.534,0.771-1.104,0.983-1.758c0.484-0.922,0.706-1.917,0.667-2.982
	c-0.092-0.687-0.184-1.372-0.276-2.058c-0.368-1.311-1.031-2.45-1.991-3.415c-0.522-0.404-1.044-0.807-1.566-1.21
	c-1.207-0.701-2.51-1.053-3.907-1.057c-0.61,0.034-1.22,0.068-1.83,0.103c-1.066-0.04-2.06,0.182-2.982,0.667
	c-0.149,0.048-0.273,0.138-0.416,0.197c-0.777,0.322-1.483,0.766-2.075,1.404C726.866,742.708,726.332,743.539,726.02,744.499z"/>
<path style="fill:#321C27;" d="M1073.649,987.649c2.798,0,4.782-1.241,6.009-2.998c3.143-4.497,1.165-12.482-6.009-12.482
	c-1.935,0-3.483,0.595-4.667,1.536C1064.071,977.61,1065.611,987.649,1073.649,987.649z"/>
<path style="fill:#321C27;" d="M1315.093,454.036c0.337,4.378,3.574,6.819,7.002,7.324c4.3,0.633,8.905-1.787,8.478-7.324
	c-2.423-31.398-2.951-63.87,4.164-94.736c5.743-24.918,17.919-52.012,43.845-61.139c55.922-19.686,105.502,26.639,130.184,72.143
	c30.569,56.358,35.672,126.322,21.593,188.122c-7.585,33.298-20.789,65.159-39.44,93.791c-9.21,14.139-19.738,27.347-31.505,39.443
	c-12.717,13.07-27.285,25.529-44.605,31.969c-16.406,6.1-34.64,5.644-47.943-6.9c-11.659-10.993-17.235-26.935-20.93-42.138
	c-4.909-20.2-7.355-41.171-9.379-61.828c-2.224-22.688-3.322-45.487-3.28-68.284c0.021-11.4,0.347-22.794,0.918-34.18
	c0.307-6.13-5.438-8.461-10.019-7.042c-2.86,0.886-5.269,3.225-5.46,7.042c-2.482,49.524,0.333,99.174,8.334,148.11
	c5.5,33.64,17.916,76.872,57.058,83.768c1.792,0.315,3.564,0.461,5.337,0.621c37.719,3.395,71.135-27.51,93.693-54.309
	c23.668-28.12,41.625-60.616,53.483-95.38c23.906-70.088,22.262-148.889-7.765-216.849c-14.689-33.246-40.478-66.894-73.409-84.797
	c-17.309-9.41-36.589-14.472-57.27-12.836c-15.855,1.254-31.119,5.67-43.825,15.481c-11.518,8.893-19.944,21.075-25.749,34.325
	c-13.587,31.01-15.727,66.372-14.877,99.804C1313.943,436.848,1314.43,445.448,1315.093,454.036z"/>
<path style="fill:#321C27;" d="M1328.991,488.484l1.323-1.269c0.755-0.701,1.288-1.531,1.6-2.491
	c0.485-0.922,0.706-1.916,0.667-2.982c0.04-1.066-0.182-2.06-0.667-2.982c-0.312-0.959-0.846-1.79-1.6-2.491
	c-0.522-0.403-1.044-0.807-1.566-1.21c-1.207-0.7-2.51-1.052-3.906-1.057c-0.686,0.092-1.372,0.185-2.058,0.276
	c-0.004,0.002-0.006,0.004-0.011,0.005c-1.306,0.368-2.441,1.029-3.404,1.986l-1.324,1.269c-0.754,0.701-1.288,1.531-1.6,2.491
	c-0.485,0.922-0.706,1.916-0.666,2.982c-0.04,1.065,0.181,2.06,0.666,2.982c0.312,0.959,0.846,1.789,1.6,2.491
	c0.522,0.404,1.045,0.807,1.567,1.21c1.207,0.7,2.509,1.052,3.906,1.057c0.021-0.003,0.042-0.006,0.063-0.009
	c0.665-0.089,1.33-0.179,1.995-0.268C1326.887,490.107,1328.025,489.443,1328.991,488.484z"/>
<path style="fill:#321C27;" d="M1264.129,881.743c-0.472-0.082-0.957-0.147-1.485-0.147c-9.961,0-9.977,15.48,0,15.48
	c0.839,0,1.581-0.143,2.279-0.345C1272.071,894.67,1271.825,883.082,1264.129,881.743z"/>
<path style="fill:#321C27;" d="M1289.817,1594.168c-0.081,0-0.148,0.021-0.228,0.023c-0.001,0,0,0-0.001,0
	c-9.717,0.248-9.666,15.457,0.229,15.457c1.335,0,2.478-0.294,3.456-0.776C1299.589,1605.76,1298.458,1594.168,1289.817,1594.168z"
	/>
<path style="fill:#321C27;" d="M1581.666,1490.453c1.252,0,2.346-0.246,3.284-0.674l0,0c6.522-2.975,5.439-14.806-3.284-14.806
	c-2.208,0-3.897,0.785-5.127,1.969l0,0C1572.219,1481.099,1573.901,1490.453,1581.666,1490.453z"/>
</svg>
